<svg xmlns="http://www.w3.org/2000/svg" viewBox="0 0 512 512" width="512" height="512">
  <defs>
    <linearGradient id="grad1" x1="0%" y1="0%" x2="100%" y2="100%">
      <stop offset="0%" style="stop-color:#3B82F6;stop-opacity:1" />
      <stop offset="100%" style="stop-color:#8B5CF6;stop-opacity:1" />
    </linearGradient>
  </defs>
  
  <!-- Background circle -->
  <circle cx="256" cy="256" r="240" fill="url(#grad1)" />
  
  <!-- Fork -->
  <path d="M180 150 L180 320 L200 320 L200 150 M170 150 L170 120 L180 120 L180 150 M190 150 L190 120 L200 120 L200 150 M210 150 L210 120 L220 120 L220 150" 
        fill="white" stroke="white" stroke-width="2"/>
  
  <!-- Spoon -->
  <ellipse cx="320" cy="140" rx="15" ry="25" fill="white"/>
  <rect x="315" y="165" width="10" height="155" fill="white"/>
  
  <!-- Plate -->
  <ellipse cx="256" cy="380" rx="120" ry="20" fill="white" opacity="0.3"/>
  
  <!-- Food items -->
  <circle cx="230" cy="360" r="12" fill="#FCD34D"/>
  <circle cx="270" cy="350" r="10" fill="#EF4444"/>
  <circle cx="250" cy="375" r="8" fill="#10B981"/>
</svg> 